<?xml version="1.0" encoding="UTF-8"?>
<svg id="Layer_2" data-name="Layer 2" xmlns="http://www.w3.org/2000/svg" viewBox="0 0 40 40">
  <defs>
    <style>
      .cls-1 {
        fill: #fff;
        stroke: #010101;
        stroke-miterlimit: 10;
        stroke-width: 2px;
      }
    </style>
  </defs>
  <path class="cls-1" d="m22.5503,12.3566c3.213,1.1296,4.6438,4.6187,4.6438,4.6187l2.3093.3263,3.464-2.3846.1004-3.0624c-1.5563-2.3093-2.8114-5.4219-.0502-4.4681,2.7612.9539,5.698,5.7984,5.698,5.7984.5271,8.8608-.3765,9.7645-.6526,11.3208-.2761,1.5563-8.6098,5.7984-8.6098,5.7984l3.8405,5.3717-27.5865-.251,3.715-4.4932-.0251-1.3555-7.2794-4.9199c-1.732-6.6017-.6777-10.0155-.6777-10.0155.9122-2.9258,3.715-6.0495,3.715-6.0495,3.715-3.4891,4.1668-.0502,4.1668-.0502l-2.2842,3.2883.0502,2.9871,3.6648,2.0834,1.983-.251c1.23-3.1126,5.4721-4.2924,5.4721-4.2924l-.0753-5.3291,2.0834-2.7034,2.2089,2.6859.1255,5.3466Z"/>
</svg>