<?xml version="1.0" encoding="UTF-8"?>
<svg xmlns="http://www.w3.org/2000/svg" viewBox="0 0 288 560">
  <defs>
    <style>
      .cls-1 {
        fill: #fff;
        stroke: #000;
        stroke-miterlimit: 10;
        stroke-width: 7px;
      }
    </style>
  </defs>
  <g id="Head_Graphic" data-name="Head Graphic">
    <path class="cls-1" d="m147.1846,25.1031c6.5729,2.3108,9.5,9.4486,9.5,9.4486l4.7243.6676,7.0865-4.8784.2054-6.2648c-3.1838-4.7243-5.7513-11.0918-.1027-9.1405s11.6567,11.8621,11.6567,11.8621c1.0784,18.1269-.7703,19.9756-1.3351,23.1593s-17.6134,11.8621-17.6134,11.8621l7.8567,10.9891-56.4349-.5135,7.6-9.1918-.0514-2.773-14.8918-10.0648c-3.5432-13.5053-1.3865-20.4891-1.3865-20.4891,1.8661-5.9854,7.6-12.3756,7.6-12.3756,7.6-7.1378,8.5243-.1027,8.5243-.1027l-4.6729,6.727.1027,6.1108,7.4973,4.2621,4.0567-.5135c2.5162-6.3675,11.1945-8.781,11.1945-8.781l-.1541-10.9019,4.2621-5.5305,4.5189,5.4946.2568,10.9378Z"/>
  </g>
  <g id="Body">
    <polygon class="cls-1" points="83.2141 126.4342 83.9934 84.8912 86.2795 76.2128 96.9305 76.2128 100.983 81.2452 100.983 85.0966 185.5676 85.6101 185.5676 81.6047 187.8536 77.0858 199.284 77.0344 199.284 126.4342 196.2867 138.1677 195.7578 181.5403 199.5495 181.5403 202.4576 187.8875 202.4576 225.4418 195.2288 237.4309 138.2803 240.2519 83.2141 236.902 78.1507 225.2663 78.3344 185.948 83.639 179.6375 87.9993 179.3261 88.2079 135.523 83.2141 126.4342"/>
  </g>
  <g id="Left_Leg" data-name="Left Leg">
    <polygon class="cls-1" points="89.0313 246.8074 130.2604 255.2407 119.0161 320.8324 130.2604 320.8324 119.9532 431.089 126.8247 434.5248 130.2604 450.1419 125.8876 472.0058 123.3889 486.9982 106.8348 495.119 21.2532 493.245 21.2532 475.7539 38.7443 459.5121 48.7393 367.996 50.6133 318.646 70.9155 316.1473 89.0313 246.8074"/>
  </g>
  <g id="Right_Leg" data-name="Right Leg">
    <polygon class="cls-1" points="192.8476 246.8074 151.6185 255.2407 162.8628 320.8324 151.6185 320.8324 161.9258 431.089 155.0543 434.5248 151.6185 450.1419 155.9913 472.0058 158.49 486.9982 175.0441 495.119 260.6257 493.245 260.6257 475.7539 243.1346 459.5121 233.1397 367.996 231.2656 318.646 210.9634 316.1473 192.8476 246.8074"/>
  </g>
  <g id="Right_Arm" data-name="Right Arm">
    <polygon class="cls-1" points="221.1197 130.0351 211.9331 120.2327 211.2031 90.4626 235.3395 79.686 270.5595 89.9217 274.1725 95.7415 257.3811 133.5503 257.161 188.7357 270.2793 202.1664 271.2163 232.4635 261.5338 232.4636 267.4682 253.0781 262.4708 266.1964 227.4885 266.1965 228.4256 241.8338 242.6878 246.8313 238.7328 231.8389 228.7379 231.8389 228.7379 199.043 222.1787 187.7987 221.1197 130.0351"/>
  </g>
  <g id="Left_Arm" data-name="Left Arm">
    <polygon class="cls-1" points="61.3549 134.371 70.5415 124.5686 71.2715 94.7985 47.1351 84.0218 11.9151 94.2575 8.3021 100.0774 25.0935 137.8861 25.3136 193.0716 12.1953 206.5023 11.2583 236.7994 20.9409 236.7994 15.0064 257.414 20.0038 270.5323 54.9861 270.5323 54.0491 246.1697 39.7868 251.1671 43.7418 236.1747 53.7367 236.1747 53.7367 203.3789 60.2959 192.1346 61.3549 134.371"/>
  </g>
</svg>